<mxfile host="app.diagrams.net" agent="Mozilla/5.0 (Windows NT 10.0; Win64; x64) AppleWebKit/537.36 (KHTML, like Gecko) Chrome/136.0.0.0 Safari/537.36" version="26.2.9">
  <diagram name="Page-1" id="NwJZEkm6zoyf0KhG3ohw">
    <mxGraphModel dx="1354" dy="1007" grid="1" gridSize="10" guides="1" tooltips="1" connect="1" arrows="1" fold="1" page="1" pageScale="1" pageWidth="850" pageHeight="1100" math="0" shadow="0">
      <root>
        <mxCell id="0" />
        <mxCell id="1" parent="0" />
        <mxCell id="FZFN_ivKoZWH-NBg14Uj-1" value="" style="rounded=0;whiteSpace=wrap;html=1;" vertex="1" parent="1">
          <mxGeometry x="40" y="40" width="160" height="280" as="geometry" />
        </mxCell>
        <mxCell id="FZFN_ivKoZWH-NBg14Uj-6" value="" style="rounded=0;whiteSpace=wrap;html=1;strokeColor=default;" vertex="1" parent="1">
          <mxGeometry x="40" y="40" width="160" height="40" as="geometry" />
        </mxCell>
        <mxCell id="FZFN_ivKoZWH-NBg14Uj-7" value="" style="rounded=0;whiteSpace=wrap;html=1;" vertex="1" parent="1">
          <mxGeometry x="40" y="80" width="160" height="20" as="geometry" />
        </mxCell>
        <mxCell id="FZFN_ivKoZWH-NBg14Uj-117" value="" style="edgeStyle=orthogonalEdgeStyle;rounded=0;orthogonalLoop=1;jettySize=auto;html=1;entryX=-0.014;entryY=0.422;entryDx=0;entryDy=0;entryPerimeter=0;" edge="1" parent="1" source="FZFN_ivKoZWH-NBg14Uj-10" target="FZFN_ivKoZWH-NBg14Uj-103">
          <mxGeometry relative="1" as="geometry" />
        </mxCell>
        <mxCell id="FZFN_ivKoZWH-NBg14Uj-10" value="" style="shape=cross;whiteSpace=wrap;html=1;fillColor=light-dark(#FFFFFF,#FFFFFF);" vertex="1" parent="1">
          <mxGeometry x="95" y="220" width="50" height="50" as="geometry" />
        </mxCell>
        <mxCell id="FZFN_ivKoZWH-NBg14Uj-15" value="" style="shape=cross;whiteSpace=wrap;html=1;fillColor=light-dark(#FFFFFF,#FFFFFF);strokeColor=none;" vertex="1" parent="1">
          <mxGeometry x="130" y="50" width="20" height="20" as="geometry" />
        </mxCell>
        <mxCell id="FZFN_ivKoZWH-NBg14Uj-18" value="" style="html=1;shadow=0;dashed=0;align=center;verticalAlign=middle;shape=mxgraph.arrows2.arrow;dy=0;dx=30;notch=20;fillColor=light-dark(#FFFFFF,#FFFFFF);" vertex="1" parent="1">
          <mxGeometry x="178" y="85" width="10" height="10" as="geometry" />
        </mxCell>
        <mxCell id="FZFN_ivKoZWH-NBg14Uj-19" value="" style="html=1;shadow=0;dashed=0;align=center;verticalAlign=middle;shape=mxgraph.arrows2.arrow;dy=0;dx=30;notch=20;fillColor=light-dark(#FFFFFF,#FFFFFF);flipH=1;" vertex="1" parent="1">
          <mxGeometry x="50" y="85" width="10" height="10" as="geometry" />
        </mxCell>
        <mxCell id="FZFN_ivKoZWH-NBg14Uj-20" value="Today" style="text;html=1;align=center;verticalAlign=middle;whiteSpace=wrap;rounded=0;" vertex="1" parent="1">
          <mxGeometry x="85" y="80" width="70" height="20" as="geometry" />
        </mxCell>
        <mxCell id="FZFN_ivKoZWH-NBg14Uj-21" value="Home Page" style="text;html=1;align=center;verticalAlign=middle;whiteSpace=wrap;rounded=0;" vertex="1" parent="1">
          <mxGeometry x="40" y="10" width="160" height="30" as="geometry" />
        </mxCell>
        <mxCell id="FZFN_ivKoZWH-NBg14Uj-36" value="No food logs for today" style="text;html=1;align=center;verticalAlign=middle;whiteSpace=wrap;rounded=0;" vertex="1" parent="1">
          <mxGeometry x="70" y="140" width="100" height="50" as="geometry" />
        </mxCell>
        <mxCell id="FZFN_ivKoZWH-NBg14Uj-43" value="" style="html=1;verticalLabelPosition=bottom;align=center;labelBackgroundColor=#ffffff;verticalAlign=top;strokeWidth=2;strokeColor=default;shadow=0;dashed=0;shape=mxgraph.ios7.icons.settings;" vertex="1" parent="1">
          <mxGeometry x="168" y="45" width="30" height="30" as="geometry" />
        </mxCell>
        <mxCell id="FZFN_ivKoZWH-NBg14Uj-103" value="" style="rounded=0;whiteSpace=wrap;html=1;" vertex="1" parent="1">
          <mxGeometry x="240" y="40" width="160" height="280" as="geometry" />
        </mxCell>
        <mxCell id="FZFN_ivKoZWH-NBg14Uj-104" value="" style="rounded=0;whiteSpace=wrap;html=1;" vertex="1" parent="1">
          <mxGeometry x="240" y="40" width="160" height="30" as="geometry" />
        </mxCell>
        <mxCell id="FZFN_ivKoZWH-NBg14Uj-105" value="BFL" style="text;html=1;align=center;verticalAlign=middle;whiteSpace=wrap;rounded=0;" vertex="1" parent="1">
          <mxGeometry x="240" y="40" width="40" height="30" as="geometry" />
        </mxCell>
        <mxCell id="FZFN_ivKoZWH-NBg14Uj-107" value="Search" style="strokeWidth=1;shadow=0;dashed=0;align=center;html=1;shape=mxgraph.mockup.forms.searchBox;strokeColor=#999999;mainText=;strokeColor2=#008cff;fontColor=#666666;fontSize=17;align=left;spacingLeft=3;whiteSpace=wrap;" vertex="1" parent="1">
          <mxGeometry x="240" y="100" width="160" height="30" as="geometry" />
        </mxCell>
        <mxCell id="FZFN_ivKoZWH-NBg14Uj-110" value="" style="html=1;verticalLabelPosition=bottom;align=center;labelBackgroundColor=#ffffff;verticalAlign=top;strokeWidth=2;strokeColor=default;shadow=0;dashed=0;shape=mxgraph.ios7.icons.settings;" vertex="1" parent="1">
          <mxGeometry x="374" y="45" width="20" height="20" as="geometry" />
        </mxCell>
        <mxCell id="FZFN_ivKoZWH-NBg14Uj-111" value="" style="swimlane;fontStyle=0;childLayout=stackLayout;horizontal=1;startSize=0;horizontalStack=0;resizeParent=1;resizeParentMax=0;resizeLast=0;collapsible=0;marginBottom=0;whiteSpace=wrap;html=1;strokeColor=none;fillColor=none;" vertex="1" parent="1">
          <mxGeometry x="240" y="130" width="160" height="180" as="geometry" />
        </mxCell>
        <mxCell id="FZFN_ivKoZWH-NBg14Uj-113" value="🕝Banana (100 g)" style="text;strokeColor=#DFDFDF;fillColor=#FFFFFF;align=left;verticalAlign=middle;spacingLeft=10;spacingRight=10;overflow=hidden;points=[[0,0.5],[1,0.5]];portConstraint=eastwest;rotatable=0;whiteSpace=wrap;html=1;rSize=5;fontColor=#000000;" vertex="1" parent="FZFN_ivKoZWH-NBg14Uj-111">
          <mxGeometry width="160" height="30" as="geometry" />
        </mxCell>
        <mxCell id="FZFN_ivKoZWH-NBg14Uj-114" value="🕝Milk (500 ml)" style="text;strokeColor=#DFDFDF;fillColor=#FFFFFF;align=left;verticalAlign=middle;spacingLeft=10;spacingRight=10;overflow=hidden;points=[[0,0.5],[1,0.5]];portConstraint=eastwest;rotatable=0;whiteSpace=wrap;html=1;rSize=5;fontColor=#000000;" vertex="1" parent="FZFN_ivKoZWH-NBg14Uj-111">
          <mxGeometry y="30" width="160" height="30" as="geometry" />
        </mxCell>
        <mxCell id="FZFN_ivKoZWH-NBg14Uj-115" value="🕝Pizza (4 slices)" style="text;strokeColor=#DFDFDF;fillColor=#FFFFFF;align=left;verticalAlign=middle;spacingLeft=10;spacingRight=10;overflow=hidden;points=[[0,0.5],[1,0.5]];portConstraint=eastwest;rotatable=0;whiteSpace=wrap;html=1;rSize=5;fontColor=#000000;" vertex="1" parent="FZFN_ivKoZWH-NBg14Uj-111">
          <mxGeometry y="60" width="160" height="30" as="geometry" />
        </mxCell>
        <mxCell id="FZFN_ivKoZWH-NBg14Uj-132" value="🕝Apple Juice (1 carton)" style="text;strokeColor=#DFDFDF;fillColor=#FFFFFF;align=left;verticalAlign=middle;spacingLeft=10;spacingRight=10;overflow=hidden;points=[[0,0.5],[1,0.5]];portConstraint=eastwest;rotatable=0;whiteSpace=wrap;html=1;rSize=5;fontColor=#000000;" vertex="1" parent="FZFN_ivKoZWH-NBg14Uj-111">
          <mxGeometry y="90" width="160" height="30" as="geometry" />
        </mxCell>
        <mxCell id="FZFN_ivKoZWH-NBg14Uj-133" value="🕝Apple Juice (1 carton)" style="text;strokeColor=#DFDFDF;fillColor=#FFFFFF;align=left;verticalAlign=middle;spacingLeft=10;spacingRight=10;overflow=hidden;points=[[0,0.5],[1,0.5]];portConstraint=eastwest;rotatable=0;whiteSpace=wrap;html=1;rSize=5;fontColor=#000000;" vertex="1" parent="FZFN_ivKoZWH-NBg14Uj-111">
          <mxGeometry y="120" width="160" height="30" as="geometry" />
        </mxCell>
        <mxCell id="FZFN_ivKoZWH-NBg14Uj-134" value="🕝Apple Juice (1 carton)" style="text;strokeColor=#DFDFDF;fillColor=#FFFFFF;align=left;verticalAlign=middle;spacingLeft=10;spacingRight=10;overflow=hidden;points=[[0,0.5],[1,0.5]];portConstraint=eastwest;rotatable=0;whiteSpace=wrap;html=1;rSize=5;fontColor=#000000;" vertex="1" parent="FZFN_ivKoZWH-NBg14Uj-111">
          <mxGeometry y="150" width="160" height="30" as="geometry" />
        </mxCell>
        <mxCell id="FZFN_ivKoZWH-NBg14Uj-118" value="" style="rounded=0;whiteSpace=wrap;html=1;" vertex="1" parent="1">
          <mxGeometry x="240" y="360" width="160" height="280" as="geometry" />
        </mxCell>
        <mxCell id="FZFN_ivKoZWH-NBg14Uj-122" value="B" style="strokeWidth=1;shadow=0;dashed=0;align=center;html=1;shape=mxgraph.mockup.forms.searchBox;strokeColor=#999999;mainText=;strokeColor2=#008cff;fontColor=#666666;fontSize=17;align=left;spacingLeft=3;whiteSpace=wrap;" vertex="1" parent="1">
          <mxGeometry x="240" y="420" width="160" height="30" as="geometry" />
        </mxCell>
        <mxCell id="FZFN_ivKoZWH-NBg14Uj-131" value="" style="verticalLabelPosition=bottom;verticalAlign=top;html=1;shadow=0;dashed=0;strokeWidth=1;shape=mxgraph.android.keyboard;sketch=0;" vertex="1" parent="1">
          <mxGeometry x="240" y="540" width="160" height="100" as="geometry" />
        </mxCell>
        <mxCell id="FZFN_ivKoZWH-NBg14Uj-138" value="Banana" style="text;strokeColor=#DFDFDF;fillColor=#FFFFFF;align=left;verticalAlign=middle;spacingLeft=10;spacingRight=10;overflow=hidden;points=[[0,0.5],[1,0.5]];portConstraint=eastwest;rotatable=0;whiteSpace=wrap;html=1;rSize=5;fontColor=#000000;" vertex="1" parent="1">
          <mxGeometry x="240" y="450" width="160" height="30" as="geometry" />
        </mxCell>
        <mxCell id="FZFN_ivKoZWH-NBg14Uj-224" value="" style="edgeStyle=orthogonalEdgeStyle;rounded=0;orthogonalLoop=1;jettySize=auto;html=1;" edge="1" parent="1" source="FZFN_ivKoZWH-NBg14Uj-140" target="FZFN_ivKoZWH-NBg14Uj-177">
          <mxGeometry relative="1" as="geometry" />
        </mxCell>
        <mxCell id="FZFN_ivKoZWH-NBg14Uj-140" value="➕Add New Food" style="text;html=1;align=center;verticalAlign=middle;whiteSpace=wrap;rounded=0;" vertex="1" parent="1">
          <mxGeometry x="240" y="490" width="160" height="30" as="geometry" />
        </mxCell>
        <mxCell id="FZFN_ivKoZWH-NBg14Uj-141" value="" style="rounded=0;whiteSpace=wrap;html=1;" vertex="1" parent="1">
          <mxGeometry x="240" y="70" width="160" height="30" as="geometry" />
        </mxCell>
        <mxCell id="FZFN_ivKoZWH-NBg14Uj-144" value="May 19" style="text;html=1;align=center;verticalAlign=middle;whiteSpace=wrap;rounded=0;" vertex="1" parent="1">
          <mxGeometry x="240" y="85" width="160" height="10" as="geometry" />
        </mxCell>
        <mxCell id="FZFN_ivKoZWH-NBg14Uj-145" value="Breakfast 🔻" style="text;html=1;align=center;verticalAlign=middle;whiteSpace=wrap;rounded=0;" vertex="1" parent="1">
          <mxGeometry x="240" y="70" width="160" height="10" as="geometry" />
        </mxCell>
        <mxCell id="FZFN_ivKoZWH-NBg14Uj-146" value="BFL" style="text;html=1;align=center;verticalAlign=middle;whiteSpace=wrap;rounded=0;fontColor=light-dark(#000000,#66B2FF);" vertex="1" parent="1">
          <mxGeometry x="40" y="40" width="40" height="30" as="geometry" />
        </mxCell>
        <mxCell id="FZFN_ivKoZWH-NBg14Uj-147" value="" style="sketch=0;outlineConnect=0;fontColor=#232F3E;gradientColor=none;strokeColor=light-dark(#232F3E, #ffffff);fillColor=#ffffff;dashed=0;verticalLabelPosition=bottom;verticalAlign=top;align=center;html=1;fontSize=12;fontStyle=0;aspect=fixed;shape=mxgraph.aws4.resourceIcon;resIcon=mxgraph.aws4.reported_state;" vertex="1" parent="1">
          <mxGeometry x="290" y="45" width="20" height="20" as="geometry" />
        </mxCell>
        <mxCell id="FZFN_ivKoZWH-NBg14Uj-148" value="" style="sketch=0;outlineConnect=0;fontColor=#232F3E;gradientColor=none;strokeColor=light-dark(#232F3E,#FFFFFF);fillColor=#ffffff;dashed=0;verticalLabelPosition=bottom;verticalAlign=top;align=center;html=1;fontSize=12;fontStyle=0;aspect=fixed;shape=mxgraph.aws4.resourceIcon;resIcon=mxgraph.aws4.reported_state;" vertex="1" parent="1">
          <mxGeometry x="90" y="50" width="20" height="20" as="geometry" />
        </mxCell>
        <mxCell id="FZFN_ivKoZWH-NBg14Uj-150" value="" style="shape=cross;whiteSpace=wrap;html=1;fillColor=light-dark(#FFFFFF,#66B2FF);strokeColor=none;" vertex="1" parent="1">
          <mxGeometry x="330" y="45" width="20" height="20" as="geometry" />
        </mxCell>
        <mxCell id="FZFN_ivKoZWH-NBg14Uj-152" value="" style="rounded=0;whiteSpace=wrap;html=1;" vertex="1" parent="1">
          <mxGeometry x="240" y="360" width="160" height="30" as="geometry" />
        </mxCell>
        <mxCell id="FZFN_ivKoZWH-NBg14Uj-153" value="BFL" style="text;html=1;align=center;verticalAlign=middle;whiteSpace=wrap;rounded=0;" vertex="1" parent="1">
          <mxGeometry x="240" y="360" width="40" height="30" as="geometry" />
        </mxCell>
        <mxCell id="FZFN_ivKoZWH-NBg14Uj-154" value="" style="html=1;verticalLabelPosition=bottom;align=center;labelBackgroundColor=#ffffff;verticalAlign=top;strokeWidth=2;strokeColor=default;shadow=0;dashed=0;shape=mxgraph.ios7.icons.settings;" vertex="1" parent="1">
          <mxGeometry x="375" y="365" width="20" height="20" as="geometry" />
        </mxCell>
        <mxCell id="FZFN_ivKoZWH-NBg14Uj-155" value="" style="sketch=0;outlineConnect=0;fontColor=#232F3E;gradientColor=none;strokeColor=light-dark(#232F3E,#FFFFFF);fillColor=#ffffff;dashed=0;verticalLabelPosition=bottom;verticalAlign=top;align=center;html=1;fontSize=12;fontStyle=0;aspect=fixed;shape=mxgraph.aws4.resourceIcon;resIcon=mxgraph.aws4.reported_state;" vertex="1" parent="1">
          <mxGeometry x="290" y="365" width="20" height="20" as="geometry" />
        </mxCell>
        <mxCell id="FZFN_ivKoZWH-NBg14Uj-156" value="" style="shape=cross;whiteSpace=wrap;html=1;fillColor=light-dark(#FFFFFF,#66B2FF);strokeColor=none;" vertex="1" parent="1">
          <mxGeometry x="330" y="365" width="20" height="20" as="geometry" />
        </mxCell>
        <mxCell id="FZFN_ivKoZWH-NBg14Uj-157" value="" style="rounded=0;whiteSpace=wrap;html=1;" vertex="1" parent="1">
          <mxGeometry x="240" y="390" width="160" height="30" as="geometry" />
        </mxCell>
        <mxCell id="FZFN_ivKoZWH-NBg14Uj-158" value="May 19" style="text;html=1;align=center;verticalAlign=middle;whiteSpace=wrap;rounded=0;" vertex="1" parent="1">
          <mxGeometry x="240" y="405" width="160" height="10" as="geometry" />
        </mxCell>
        <mxCell id="FZFN_ivKoZWH-NBg14Uj-159" value="Breakfast 🔻" style="text;html=1;align=center;verticalAlign=middle;whiteSpace=wrap;rounded=0;" vertex="1" parent="1">
          <mxGeometry x="240" y="390" width="160" height="10" as="geometry" />
        </mxCell>
        <mxCell id="FZFN_ivKoZWH-NBg14Uj-177" value="" style="rounded=0;whiteSpace=wrap;html=1;" vertex="1" parent="1">
          <mxGeometry x="440" y="40" width="160" height="530" as="geometry" />
        </mxCell>
        <mxCell id="FZFN_ivKoZWH-NBg14Uj-178" value="" style="rounded=0;whiteSpace=wrap;html=1;" vertex="1" parent="1">
          <mxGeometry x="440" y="40" width="160" height="30" as="geometry" />
        </mxCell>
        <mxCell id="FZFN_ivKoZWH-NBg14Uj-179" value="BFL" style="text;html=1;align=center;verticalAlign=middle;whiteSpace=wrap;rounded=0;" vertex="1" parent="1">
          <mxGeometry x="440" y="40" width="40" height="30" as="geometry" />
        </mxCell>
        <mxCell id="FZFN_ivKoZWH-NBg14Uj-181" value="" style="html=1;verticalLabelPosition=bottom;align=center;labelBackgroundColor=#ffffff;verticalAlign=top;strokeWidth=2;strokeColor=default;shadow=0;dashed=0;shape=mxgraph.ios7.icons.settings;" vertex="1" parent="1">
          <mxGeometry x="574" y="45" width="20" height="20" as="geometry" />
        </mxCell>
        <mxCell id="FZFN_ivKoZWH-NBg14Uj-189" value="&amp;nbsp;&amp;lt;&amp;nbsp;&lt;span style=&quot;white-space: pre;&quot;&gt;&#x9;&lt;/span&gt;Add New Food" style="rounded=0;whiteSpace=wrap;html=1;align=left;" vertex="1" parent="1">
          <mxGeometry x="440" y="70" width="160" height="30" as="geometry" />
        </mxCell>
        <mxCell id="FZFN_ivKoZWH-NBg14Uj-192" value="" style="sketch=0;outlineConnect=0;fontColor=#232F3E;gradientColor=none;strokeColor=light-dark(#232F3E,#FFFFFF);fillColor=#ffffff;dashed=0;verticalLabelPosition=bottom;verticalAlign=top;align=center;html=1;fontSize=12;fontStyle=0;aspect=fixed;shape=mxgraph.aws4.resourceIcon;resIcon=mxgraph.aws4.reported_state;" vertex="1" parent="1">
          <mxGeometry x="490" y="45" width="20" height="20" as="geometry" />
        </mxCell>
        <mxCell id="FZFN_ivKoZWH-NBg14Uj-193" value="" style="shape=cross;whiteSpace=wrap;html=1;fillColor=light-dark(#FFFFFF,#66B2FF);strokeColor=none;" vertex="1" parent="1">
          <mxGeometry x="530" y="45" width="20" height="20" as="geometry" />
        </mxCell>
        <mxCell id="FZFN_ivKoZWH-NBg14Uj-197" value="Log Food Page" style="text;html=1;align=center;verticalAlign=middle;whiteSpace=wrap;rounded=0;" vertex="1" parent="1">
          <mxGeometry x="240" y="10" width="160" height="30" as="geometry" />
        </mxCell>
        <mxCell id="FZFN_ivKoZWH-NBg14Uj-199" value="Add New Food Page" style="text;html=1;align=center;verticalAlign=middle;whiteSpace=wrap;rounded=0;" vertex="1" parent="1">
          <mxGeometry x="440" y="10" width="160" height="30" as="geometry" />
        </mxCell>
        <mxCell id="FZFN_ivKoZWH-NBg14Uj-206" value="Name" style="text;html=1;align=left;verticalAlign=middle;whiteSpace=wrap;rounded=0;" vertex="1" parent="1">
          <mxGeometry x="450" y="140" width="140" height="15" as="geometry" />
        </mxCell>
        <mxCell id="FZFN_ivKoZWH-NBg14Uj-207" value="E.g 1 Bar, 1 Carton" style="strokeWidth=1;html=1;shadow=0;dashed=0;shape=mxgraph.ios.iTextInput;strokeColor=#444444;buttonText=;fontSize=8;whiteSpace=wrap;align=left;" vertex="1" parent="1">
          <mxGeometry x="450" y="200" width="140" height="20" as="geometry" />
        </mxCell>
        <mxCell id="FZFN_ivKoZWH-NBg14Uj-209" value="" style="rounded=1;whiteSpace=wrap;html=1;" vertex="1" parent="1">
          <mxGeometry x="450" y="155" width="140" height="20" as="geometry" />
        </mxCell>
        <mxCell id="FZFN_ivKoZWH-NBg14Uj-214" value="Brand (optional)" style="text;html=1;align=left;verticalAlign=middle;whiteSpace=wrap;rounded=0;" vertex="1" parent="1">
          <mxGeometry x="450" y="100" width="140" height="15" as="geometry" />
        </mxCell>
        <mxCell id="FZFN_ivKoZWH-NBg14Uj-215" value="" style="rounded=1;whiteSpace=wrap;html=1;" vertex="1" parent="1">
          <mxGeometry x="450" y="115" width="140" height="20" as="geometry" />
        </mxCell>
        <mxCell id="FZFN_ivKoZWH-NBg14Uj-216" value="Serving Description" style="text;html=1;align=left;verticalAlign=middle;whiteSpace=wrap;rounded=0;" vertex="1" parent="1">
          <mxGeometry x="450" y="185" width="140" height="15" as="geometry" />
        </mxCell>
        <mxCell id="FZFN_ivKoZWH-NBg14Uj-217" value="Serving Size" style="text;html=1;align=left;verticalAlign=middle;whiteSpace=wrap;rounded=0;" vertex="1" parent="1">
          <mxGeometry x="450" y="227.5" width="140" height="15" as="geometry" />
        </mxCell>
        <mxCell id="FZFN_ivKoZWH-NBg14Uj-218" value="100" style="rounded=1;whiteSpace=wrap;html=1;" vertex="1" parent="1">
          <mxGeometry x="450" y="242.5" width="90" height="20" as="geometry" />
        </mxCell>
        <mxCell id="FZFN_ivKoZWH-NBg14Uj-286" value="" style="edgeStyle=orthogonalEdgeStyle;rounded=0;orthogonalLoop=1;jettySize=auto;html=1;" edge="1" parent="1" source="FZFN_ivKoZWH-NBg14Uj-223" target="FZFN_ivKoZWH-NBg14Uj-285">
          <mxGeometry relative="1" as="geometry" />
        </mxCell>
        <mxCell id="FZFN_ivKoZWH-NBg14Uj-223" value="Grams 🔻" style="strokeWidth=1;html=1;shadow=0;dashed=0;shape=mxgraph.ios.iTextInput;strokeColor=#444444;buttonText=;fontSize=8;whiteSpace=wrap;align=left;" vertex="1" parent="1">
          <mxGeometry x="540" y="242.5" width="50" height="20" as="geometry" />
        </mxCell>
        <mxCell id="FZFN_ivKoZWH-NBg14Uj-229" value="" style="shape=triangle;direction=south;fillColor=#343A40;strokeColor=none;perimeter=none;" vertex="1" parent="1">
          <mxGeometry x="530" y="253.5" width="7" height="3" as="geometry" />
        </mxCell>
        <mxCell id="FZFN_ivKoZWH-NBg14Uj-230" value="" style="shape=triangle;direction=north;fillColor=#343A40;strokeColor=none;perimeter=none;" vertex="1" parent="1">
          <mxGeometry x="530" y="248.5" width="7" height="3" as="geometry" />
        </mxCell>
        <mxCell id="FZFN_ivKoZWH-NBg14Uj-233" value="Calories" style="text;html=1;align=left;verticalAlign=middle;whiteSpace=wrap;rounded=0;" vertex="1" parent="1">
          <mxGeometry x="460" y="270" width="130" height="15" as="geometry" />
        </mxCell>
        <mxCell id="FZFN_ivKoZWH-NBg14Uj-234" value="100" style="rounded=1;whiteSpace=wrap;html=1;align=center;" vertex="1" parent="1">
          <mxGeometry x="460" y="285" width="130" height="20" as="geometry" />
        </mxCell>
        <mxCell id="FZFN_ivKoZWH-NBg14Uj-237" value="" style="shape=triangle;direction=south;fillColor=#343A40;strokeColor=none;perimeter=none;" vertex="1" parent="1">
          <mxGeometry x="580" y="296" width="7" height="3" as="geometry" />
        </mxCell>
        <mxCell id="FZFN_ivKoZWH-NBg14Uj-238" value="" style="shape=triangle;direction=north;fillColor=#343A40;strokeColor=none;perimeter=none;" vertex="1" parent="1">
          <mxGeometry x="580" y="291" width="7" height="3" as="geometry" />
        </mxCell>
        <mxCell id="FZFN_ivKoZWH-NBg14Uj-241" value="Protein (g)" style="text;html=1;align=left;verticalAlign=middle;whiteSpace=wrap;rounded=0;" vertex="1" parent="1">
          <mxGeometry x="460" y="310" width="130" height="15" as="geometry" />
        </mxCell>
        <mxCell id="FZFN_ivKoZWH-NBg14Uj-242" value="22" style="rounded=1;whiteSpace=wrap;html=1;align=center;" vertex="1" parent="1">
          <mxGeometry x="460" y="325" width="130" height="20" as="geometry" />
        </mxCell>
        <mxCell id="FZFN_ivKoZWH-NBg14Uj-243" value="" style="shape=triangle;direction=south;fillColor=#343A40;strokeColor=none;perimeter=none;" vertex="1" parent="1">
          <mxGeometry x="580" y="336" width="7" height="3" as="geometry" />
        </mxCell>
        <mxCell id="FZFN_ivKoZWH-NBg14Uj-244" value="" style="shape=triangle;direction=north;fillColor=#343A40;strokeColor=none;perimeter=none;" vertex="1" parent="1">
          <mxGeometry x="580" y="331" width="7" height="3" as="geometry" />
        </mxCell>
        <mxCell id="FZFN_ivKoZWH-NBg14Uj-245" value="Fat (g)" style="text;html=1;align=left;verticalAlign=middle;whiteSpace=wrap;rounded=0;" vertex="1" parent="1">
          <mxGeometry x="460" y="350" width="130" height="15" as="geometry" />
        </mxCell>
        <mxCell id="FZFN_ivKoZWH-NBg14Uj-246" value="12" style="rounded=1;whiteSpace=wrap;html=1;align=center;" vertex="1" parent="1">
          <mxGeometry x="460" y="365" width="130" height="20" as="geometry" />
        </mxCell>
        <mxCell id="FZFN_ivKoZWH-NBg14Uj-247" value="" style="shape=triangle;direction=south;fillColor=#343A40;strokeColor=none;perimeter=none;" vertex="1" parent="1">
          <mxGeometry x="580" y="376" width="7" height="3" as="geometry" />
        </mxCell>
        <mxCell id="FZFN_ivKoZWH-NBg14Uj-248" value="" style="shape=triangle;direction=north;fillColor=#343A40;strokeColor=none;perimeter=none;" vertex="1" parent="1">
          <mxGeometry x="580" y="371" width="7" height="3" as="geometry" />
        </mxCell>
        <mxCell id="FZFN_ivKoZWH-NBg14Uj-249" value="Carbs (g)" style="text;html=1;align=left;verticalAlign=middle;whiteSpace=wrap;rounded=0;" vertex="1" parent="1">
          <mxGeometry x="460" y="390" width="130" height="15" as="geometry" />
        </mxCell>
        <mxCell id="FZFN_ivKoZWH-NBg14Uj-250" value="6" style="rounded=1;whiteSpace=wrap;html=1;align=center;" vertex="1" parent="1">
          <mxGeometry x="460" y="405" width="130" height="20" as="geometry" />
        </mxCell>
        <mxCell id="FZFN_ivKoZWH-NBg14Uj-251" value="" style="shape=triangle;direction=south;fillColor=#343A40;strokeColor=none;perimeter=none;" vertex="1" parent="1">
          <mxGeometry x="580" y="416" width="7" height="3" as="geometry" />
        </mxCell>
        <mxCell id="FZFN_ivKoZWH-NBg14Uj-252" value="" style="shape=triangle;direction=north;fillColor=#343A40;strokeColor=none;perimeter=none;" vertex="1" parent="1">
          <mxGeometry x="580" y="411" width="7" height="3" as="geometry" />
        </mxCell>
        <mxCell id="FZFN_ivKoZWH-NBg14Uj-253" value="Sugar (g)" style="text;html=1;align=left;verticalAlign=middle;whiteSpace=wrap;rounded=0;" vertex="1" parent="1">
          <mxGeometry x="460" y="430" width="130" height="15" as="geometry" />
        </mxCell>
        <mxCell id="FZFN_ivKoZWH-NBg14Uj-254" value="3" style="rounded=1;whiteSpace=wrap;html=1;align=center;" vertex="1" parent="1">
          <mxGeometry x="460" y="445" width="130" height="20" as="geometry" />
        </mxCell>
        <mxCell id="FZFN_ivKoZWH-NBg14Uj-255" value="" style="shape=triangle;direction=south;fillColor=#343A40;strokeColor=none;perimeter=none;" vertex="1" parent="1">
          <mxGeometry x="580" y="456" width="7" height="3" as="geometry" />
        </mxCell>
        <mxCell id="FZFN_ivKoZWH-NBg14Uj-256" value="" style="shape=triangle;direction=north;fillColor=#343A40;strokeColor=none;perimeter=none;" vertex="1" parent="1">
          <mxGeometry x="580" y="451" width="7" height="3" as="geometry" />
        </mxCell>
        <mxCell id="FZFN_ivKoZWH-NBg14Uj-257" value="Cholesterol (mg)" style="text;html=1;align=left;verticalAlign=middle;whiteSpace=wrap;rounded=0;" vertex="1" parent="1">
          <mxGeometry x="460" y="470" width="130" height="15" as="geometry" />
        </mxCell>
        <mxCell id="FZFN_ivKoZWH-NBg14Uj-258" value="0" style="rounded=1;whiteSpace=wrap;html=1;align=center;" vertex="1" parent="1">
          <mxGeometry x="460" y="485" width="130" height="20" as="geometry" />
        </mxCell>
        <mxCell id="FZFN_ivKoZWH-NBg14Uj-259" value="" style="shape=triangle;direction=south;fillColor=#343A40;strokeColor=none;perimeter=none;" vertex="1" parent="1">
          <mxGeometry x="580" y="496" width="7" height="3" as="geometry" />
        </mxCell>
        <mxCell id="FZFN_ivKoZWH-NBg14Uj-260" value="" style="shape=triangle;direction=north;fillColor=#343A40;strokeColor=none;perimeter=none;" vertex="1" parent="1">
          <mxGeometry x="580" y="491" width="7" height="3" as="geometry" />
        </mxCell>
        <mxCell id="FZFN_ivKoZWH-NBg14Uj-261" value="Sodium (mg)" style="text;html=1;align=left;verticalAlign=middle;whiteSpace=wrap;rounded=0;" vertex="1" parent="1">
          <mxGeometry x="460" y="515" width="130" height="15" as="geometry" />
        </mxCell>
        <mxCell id="FZFN_ivKoZWH-NBg14Uj-262" value="2" style="rounded=1;whiteSpace=wrap;html=1;align=center;" vertex="1" parent="1">
          <mxGeometry x="460" y="530" width="130" height="20" as="geometry" />
        </mxCell>
        <mxCell id="FZFN_ivKoZWH-NBg14Uj-263" value="" style="shape=triangle;direction=south;fillColor=#343A40;strokeColor=none;perimeter=none;" vertex="1" parent="1">
          <mxGeometry x="580" y="541" width="7" height="3" as="geometry" />
        </mxCell>
        <mxCell id="FZFN_ivKoZWH-NBg14Uj-264" value="" style="shape=triangle;direction=north;fillColor=#343A40;strokeColor=none;perimeter=none;" vertex="1" parent="1">
          <mxGeometry x="580" y="536" width="7" height="3" as="geometry" />
        </mxCell>
        <mxCell id="FZFN_ivKoZWH-NBg14Uj-285" value="&lt;ul&gt;&lt;li&gt;grams&lt;/li&gt;&lt;li&gt;milliliters&lt;/li&gt;&lt;/ul&gt;" style="text;strokeColor=none;fillColor=none;html=1;whiteSpace=wrap;verticalAlign=middle;overflow=hidden;" vertex="1" parent="1">
          <mxGeometry x="610" y="212.5" width="100" height="80" as="geometry" />
        </mxCell>
        <mxCell id="FZFN_ivKoZWH-NBg14Uj-289" value="" style="rounded=0;whiteSpace=wrap;html=1;" vertex="1" parent="1">
          <mxGeometry x="720" y="40" width="160" height="280" as="geometry" />
        </mxCell>
        <mxCell id="FZFN_ivKoZWH-NBg14Uj-290" value="" style="rounded=0;whiteSpace=wrap;html=1;" vertex="1" parent="1">
          <mxGeometry x="720" y="40" width="160" height="30" as="geometry" />
        </mxCell>
        <mxCell id="FZFN_ivKoZWH-NBg14Uj-291" value="BFL" style="text;html=1;align=center;verticalAlign=middle;whiteSpace=wrap;rounded=0;" vertex="1" parent="1">
          <mxGeometry x="720" y="40" width="40" height="30" as="geometry" />
        </mxCell>
        <mxCell id="FZFN_ivKoZWH-NBg14Uj-293" value="" style="html=1;verticalLabelPosition=bottom;align=center;labelBackgroundColor=#ffffff;verticalAlign=top;strokeWidth=2;strokeColor=default;shadow=0;dashed=0;shape=mxgraph.ios7.icons.settings;" vertex="1" parent="1">
          <mxGeometry x="850" y="45" width="20" height="20" as="geometry" />
        </mxCell>
        <mxCell id="FZFN_ivKoZWH-NBg14Uj-304" value="" style="sketch=0;outlineConnect=0;fontColor=light-dark(#232F3E,#66B2FF);gradientColor=none;strokeColor=light-dark(#232F3E,#3399FF);fillColor=#ffffff;dashed=0;verticalLabelPosition=bottom;verticalAlign=top;align=center;html=1;fontSize=12;fontStyle=0;aspect=fixed;shape=mxgraph.aws4.resourceIcon;resIcon=mxgraph.aws4.reported_state;" vertex="1" parent="1">
          <mxGeometry x="770" y="45" width="20" height="20" as="geometry" />
        </mxCell>
        <mxCell id="FZFN_ivKoZWH-NBg14Uj-305" value="" style="shape=cross;whiteSpace=wrap;html=1;fillColor=light-dark(#FFFFFF,#FFFFFF);strokeColor=none;" vertex="1" parent="1">
          <mxGeometry x="810" y="45" width="20" height="20" as="geometry" />
        </mxCell>
        <mxCell id="FZFN_ivKoZWH-NBg14Uj-306" value="Reports Page" style="text;html=1;align=center;verticalAlign=middle;whiteSpace=wrap;rounded=0;" vertex="1" parent="1">
          <mxGeometry x="720" y="10" width="160" height="30" as="geometry" />
        </mxCell>
        <mxCell id="FZFN_ivKoZWH-NBg14Uj-309" value="" style="rounded=0;whiteSpace=wrap;html=1;" vertex="1" parent="1">
          <mxGeometry x="920" y="40" width="160" height="280" as="geometry" />
        </mxCell>
        <mxCell id="FZFN_ivKoZWH-NBg14Uj-310" value="" style="rounded=0;whiteSpace=wrap;html=1;" vertex="1" parent="1">
          <mxGeometry x="920" y="40" width="160" height="30" as="geometry" />
        </mxCell>
        <mxCell id="FZFN_ivKoZWH-NBg14Uj-311" value="BFL" style="text;html=1;align=center;verticalAlign=middle;whiteSpace=wrap;rounded=0;" vertex="1" parent="1">
          <mxGeometry x="920" y="40" width="40" height="30" as="geometry" />
        </mxCell>
        <mxCell id="FZFN_ivKoZWH-NBg14Uj-312" value="" style="html=1;verticalLabelPosition=bottom;align=center;labelBackgroundColor=#ffffff;verticalAlign=top;strokeWidth=2;strokeColor=light-dark(#000000,#3399FF);shadow=0;dashed=0;shape=mxgraph.ios7.icons.settings;" vertex="1" parent="1">
          <mxGeometry x="1050" y="45" width="20" height="20" as="geometry" />
        </mxCell>
        <mxCell id="FZFN_ivKoZWH-NBg14Uj-313" value="" style="sketch=0;outlineConnect=0;fontColor=light-dark(#232F3E,#66B2FF);gradientColor=none;strokeColor=light-dark(#232F3E,#FFFFFF);fillColor=#ffffff;dashed=0;verticalLabelPosition=bottom;verticalAlign=top;align=center;html=1;fontSize=12;fontStyle=0;aspect=fixed;shape=mxgraph.aws4.resourceIcon;resIcon=mxgraph.aws4.reported_state;" vertex="1" parent="1">
          <mxGeometry x="970" y="45" width="20" height="20" as="geometry" />
        </mxCell>
        <mxCell id="FZFN_ivKoZWH-NBg14Uj-314" value="" style="shape=cross;whiteSpace=wrap;html=1;fillColor=light-dark(#FFFFFF,#FFFFFF);strokeColor=none;" vertex="1" parent="1">
          <mxGeometry x="1010" y="45" width="20" height="20" as="geometry" />
        </mxCell>
        <mxCell id="FZFN_ivKoZWH-NBg14Uj-315" value="Settings Page" style="text;html=1;align=center;verticalAlign=middle;whiteSpace=wrap;rounded=0;" vertex="1" parent="1">
          <mxGeometry x="920" y="10" width="160" height="30" as="geometry" />
        </mxCell>
      </root>
    </mxGraphModel>
  </diagram>
</mxfile>
